<svg width="352" height="352" viewBox="0 0 352 352" fill="none" xmlns="http://www.w3.org/2000/svg">
<path d="M246.4 123.2V88H176V184.8C168.608 179.344 159.632 176 149.6 176C137.93 176 126.739 180.636 118.487 188.887C110.236 197.139 105.6 208.33 105.6 220C105.6 231.67 110.236 242.861 118.487 251.113C126.739 259.364 137.93 264 149.6 264C161.27 264 172.461 259.364 180.713 251.113C188.964 242.861 193.6 231.67 193.6 220V123.2H246.4ZM176 0C199.113 0 221.999 4.55238 243.352 13.3972C264.706 22.242 284.108 35.2061 300.451 51.5492C316.794 67.8923 329.758 87.2944 338.603 108.648C347.448 130.001 352 152.887 352 176C352 222.678 333.457 267.444 300.451 300.451C267.444 333.457 222.678 352 176 352C152.887 352 130.001 347.448 108.648 338.603C87.2944 329.758 67.8923 316.794 51.5492 300.451C18.5428 267.444 0 222.678 0 176C0 129.322 18.5428 84.5556 51.5492 51.5492C84.5556 18.5428 129.322 0 176 0Z" fill="white"/>
</svg>
