<svg xmlns="http://www.w3.org/2000/svg" viewBox="0 0 256 256" width="100%" height="100%" preserveAspectRatio="xMidYMid meet">
    <!-- MusicBrainz Logo (Simplified) -->
    <path fill="#eb743b" d="M110.15 151.78l17.75 32.74c1.17 2.15 3.32 3.63 5.76 3.96 2.45.34 4.96-.48 6.74-2.18l24.37-23.23c2.09-1.99 2.94-5 2.22-7.85l-7.3-29.35c-.6-2.42-2.31-4.42-4.57-5.32-2.26-.91-4.88-.61-6.98.79l-26.65 17.8c-2.31 1.54-3.52 4.31-3 7.02l-8.34-14.37z"/>
    <path fill="#734289" d="M128 0C57.31 0 0 57.31 0 128s57.31 128 128 128 128-57.31 128-128S198.69 0 128 0zm68.31 133.27l-26.47 25.23c-5.59 5.33-13.48 7.89-21.14 6.82-7.66-1.06-14.41-5.71-18.08-12.47L116 124l-31.54 21.07c-6.61 4.41-14.82 5.36-22 2.49s-12.72-8.91-14.61-16.5l-7.46-30c-1.84-7.42-.48-15.34 3.64-21.7s10.36-10.45 17.57-11.4l30.22-4c7.63-1.02 15.33.91 21.37 5.38s9.9 11.23 11 18.77l1.79 12.3 8.35 14.39 5.48 22.06 20.3-19.34c5.07-4.83 12.28-7.1 19.34-6.09 7.05 1 13.25 5.25 16.63 11.41l15 27.27c3.86 7.02 4.14 15.42.74 22.69s-9.15 12.59-16.67 14.37z"/>
</svg>
