<svg width="352" height="352" viewBox="0 0 352 352" fill="none" xmlns="http://www.w3.org/2000/svg">
<path d="M279.84 156.64C223.52 123.2 129.36 119.68 75.68 136.4C66.88 139.04 58.08 133.76 55.44 125.84C52.8 117.04 58.08 108.24 66 105.6C128.48 87.12 231.44 90.64 296.56 129.36C304.48 133.76 307.12 144.32 302.72 152.24C298.32 158.4 287.76 161.04 279.84 156.64ZM278.08 205.92C273.68 212.08 265.76 214.72 259.6 210.32C212.08 181.28 139.92 172.48 84.48 190.08C77.44 191.84 69.52 188.32 67.76 181.28C66 174.24 69.52 166.32 76.56 164.56C140.8 145.2 220 154.88 274.56 188.32C279.84 190.96 282.48 199.76 278.08 205.92ZM256.96 254.32C253.44 259.6 247.28 261.36 242 257.84C200.64 232.32 148.72 227.04 87.12 241.12C80.96 242.88 75.68 238.48 73.92 233.2C72.16 227.04 76.56 221.76 81.84 220C148.72 205.04 206.8 211.2 252.56 239.36C258.72 242 259.6 249.04 256.96 254.32ZM176 0C152.887 0 130.001 4.55238 108.648 13.3972C87.2944 22.242 67.8923 35.2061 51.5492 51.5492C18.5428 84.5556 0 129.322 0 176C0 222.678 18.5428 267.444 51.5492 300.451C67.8923 316.794 87.2944 329.758 108.648 338.603C130.001 347.448 152.887 352 176 352C222.678 352 267.444 333.457 300.451 300.451C333.457 267.444 352 222.678 352 176C352 152.887 347.448 130.001 338.603 108.648C329.758 87.2944 316.794 67.8923 300.451 51.5492C284.108 35.2061 264.706 22.242 243.352 13.3972C221.999 4.55238 199.113 0 176 0Z" fill="white"/>
</svg>
